REM DIRINDEX 1\6,1\2\7,1\2\8,1\2\9,1\3\10,1\3\11,1\4\12,1\4\13,1\4\14,1\5\15,1\5\16,1\5\17
REM DIRNAME folder01,folder02,folder03,folder04,folder05,folder06,folder07,folder08,folder09,folder10,folder11,folder12,folder13,folder14,folder15,folder16,folder17
TITLE ""
FILE "P2Q_t_1015-1032.mp3" MP3
  TRACK 01 AUDIO
    TITLE "10:cjc040_3686"
    INDEX 01 00:00:00
  TRACK 02 AUDIO
    TITLE "0:"
    INDEX 01 00:00:72
  TRACK 03 AUDIO
    TITLE "11:cjc040_3687"
    INDEX 01 00:01:50
  TRACK 04 AUDIO
    TITLE "0:"
    INDEX 01 00:02:53
  TRACK 05 AUDIO
    TITLE "10:cjc040_3688"
    INDEX 01 00:03:31
  TRACK 06 AUDIO
    TITLE "0:"
    INDEX 01 00:04:44
  TRACK 07 AUDIO
    TITLE "11:cjc040_3689"
    INDEX 01 00:05:28
  TRACK 08 AUDIO
    TITLE "0:"
    INDEX 01 00:06:51
  TRACK 09 AUDIO
    TITLE "10:cjc040_3690"
    INDEX 01 00:07:33
  TRACK 10 AUDIO
    TITLE "0:"
    INDEX 01 00:08:48
  TRACK 11 AUDIO
    TITLE "11:cjc040_3691"
    INDEX 01 00:09:24
  TRACK 12 AUDIO
    TITLE "0:"
    INDEX 01 00:12:48
  TRACK 13 AUDIO
    TITLE "10:cjc040_3692"
    INDEX 01 00:13:30
  TRACK 14 AUDIO
    TITLE "0:"
    INDEX 01 00:14:33
  TRACK 15 AUDIO
    TITLE "11:cjc040_3693"
    INDEX 01 00:15:13
  TRACK 16 AUDIO
    TITLE "0:"
    INDEX 01 00:18:13
  TRACK 17 AUDIO
    TITLE "10:cjc040_3694"
    INDEX 01 00:18:64
  TRACK 18 AUDIO
    TITLE "0:"
    INDEX 01 00:20:02
  TRACK 19 AUDIO
    TITLE "11:cjc040_3695"
    INDEX 01 00:20:55
  TRACK 20 AUDIO
    TITLE "0:"
    INDEX 01 00:23:59
  TRACK 21 AUDIO
    TITLE "10:cjc040_3696"
    INDEX 01 00:24:37
  TRACK 22 AUDIO
    TITLE "0:"
    INDEX 01 00:25:60
  TRACK 23 AUDIO
    TITLE "11:cjc040_3697"
    INDEX 01 00:26:38
  TRACK 24 AUDIO
    TITLE "0:"
    INDEX 01 00:27:61
  TRACK 25 AUDIO
    TITLE "10:cjc040_3698"
    INDEX 01 00:28:41
  TRACK 26 AUDIO
    TITLE "0:"
    INDEX 01 00:29:54
  TRACK 27 AUDIO
    TITLE "11:cjc040_3699"
    INDEX 01 00:30:34
  TRACK 28 AUDIO
    TITLE "0:"
    INDEX 01 00:34:42
  TRACK 29 AUDIO
    TITLE "10:cjc040_3700"
    INDEX 01 00:35:17
  TRACK 30 AUDIO
    TITLE "0:"
    INDEX 01 00:36:38
  TRACK 31 AUDIO
    TITLE "11:cjc040_3701"
    INDEX 01 00:37:14
  TRACK 32 AUDIO
    TITLE "0:"
    INDEX 01 00:40:50
  TRACK 33 AUDIO
    TITLE "10:cjc040_3702"
    INDEX 01 00:41:22
  TRACK 34 AUDIO
    TITLE "0:"
    INDEX 01 00:42:27
  TRACK 35 AUDIO
    TITLE "11:cjc040_3703"
    INDEX 01 00:43:05
  TRACK 36 AUDIO
    TITLE "0:"
    INDEX 01 00:44:22
  TRACK 37 AUDIO
    TITLE "10:cjc040_3704"
    INDEX 01 00:44:69
  TRACK 38 AUDIO
    TITLE "0:"
    INDEX 01 00:46:00
  TRACK 39 AUDIO
    TITLE "11:cjc040_3705"
    INDEX 01 00:46:54
  TRACK 40 AUDIO
    TITLE "0:"
    INDEX 01 00:49:08
  TRACK 41 AUDIO
    TITLE "10:cjc040_3706"
    INDEX 01 00:49:63
  TRACK 42 AUDIO
    TITLE "0:"
    INDEX 01 00:51:09
  TRACK 43 AUDIO
    TITLE "11:cjc040_3707"
    INDEX 01 00:51:62
  TRACK 44 AUDIO
    TITLE "0:"
    INDEX 01 00:54:52
  TRACK 45 AUDIO
    TITLE "10:cjc040_3708"
    INDEX 01 00:55:32
  TRACK 46 AUDIO
    TITLE "0:"
    INDEX 01 00:56:49
  TRACK 47 AUDIO
    TITLE "11:cjc040_3709"
    INDEX 01 00:57:25
  TRACK 48 AUDIO
    TITLE "0:"
    INDEX 01 00:59:43
  TRACK 49 AUDIO
    TITLE "10:cjc040_3710"
    INDEX 01 01:00:19
  TRACK 50 AUDIO
    TITLE "0:"
    INDEX 01 01:01:15
  TRACK 51 AUDIO
    TITLE "11:cjc040_3711"
    INDEX 01 01:01:74
  TRACK 52 AUDIO
    TITLE "0:"
    INDEX 01 01:04:05
  TRACK 53 AUDIO
    TITLE "10:cjc040_3712"
    INDEX 01 01:04:58
  TRACK 54 AUDIO
    TITLE "0:"
    INDEX 01 01:05:64
  TRACK 55 AUDIO
    TITLE "11:cjc040_3713"
    INDEX 01 01:06:49
  TRACK 56 AUDIO
    TITLE "0:"
    INDEX 01 01:10:39
  TRACK 57 AUDIO
    TITLE "10:cjc040_3714"
    INDEX 01 01:11:17
  TRACK 58 AUDIO
    TITLE "0:"
    INDEX 01 01:12:30
  TRACK 59 AUDIO
    TITLE "11:cjc040_3715"
    INDEX 01 01:13:08
  TRACK 60 AUDIO
    TITLE "0:"
    INDEX 01 01:14:47
  TRACK 61 AUDIO
    TITLE "10:cjc040_3716"
    INDEX 01 01:15:29
  TRACK 62 AUDIO
    TITLE "0:"
    INDEX 01 01:16:52
  TRACK 63 AUDIO
    TITLE "11:cjc040_3717"
    INDEX 01 01:17:33
  TRACK 64 AUDIO
    TITLE "0:"
    INDEX 01 01:20:22
  TRACK 65 AUDIO
    TITLE "10:cjc040_3718"
    INDEX 01 01:21:04
  TRACK 66 AUDIO
    TITLE "0:"
    INDEX 01 01:22:15
  TRACK 67 AUDIO
    TITLE "11:cjc040_3719"
    INDEX 01 01:22:70
  TRACK 68 AUDIO
    TITLE "0:"
    INDEX 01 01:25:45
  TRACK 69 AUDIO
    TITLE "10:cjc040_3720"
    INDEX 01 01:26:27
  TRACK 70 AUDIO
    TITLE "0:"
    INDEX 01 01:27:44
  TRACK 71 AUDIO
    TITLE "11:cjc040_3721"
    INDEX 01 01:28:20
  TRACK 72 AUDIO
    TITLE "0:"
    INDEX 01 01:29:54
